<?xml version="1.0"?>
<svg xmlns="http://www.w3.org/2000/svg" height="512px" viewBox="-13 0 447 447.12" width="512px"><g><path d="m197.085938 0-197.0273442 95.121094h394.0507812zm0 0" data-original="#000000" class="active-path" data-old_color="#000000" fill="#287391"/><path d="m197.085938 343.121094c.03125-10.820313 1.53125-21.585938 4.460937-32h-92.460937c-4.421876 0-8-3.582032-8-8v-160c0-4.417969 3.578124-8 8-8h176c4.417968 0 8 3.582031 8 8v82.398437c18.558593-3.808593 37.765624-3.105469 56 2.046875v-116.445312h-304v336h212.390624c-37.304687-21.351563-60.339843-61.019532-60.390624-104zm0 0" data-original="#000000" class="active-path" data-old_color="#000000" fill="#287391"/><path d="m205.085938 151.121094h72v64h-72zm0 0" data-original="#000000" class="active-path" data-old_color="#000000" fill="#287391"/><path d="m205.085938 295.121094h2.085937c12.960937-29.449219 37.15625-52.492188 67.199219-64h-69.285156zm0 0" data-original="#000000" class="active-path" data-old_color="#000000" fill="#287391"/><path d="m117.085938 231.121094h72v64h-72zm0 0" data-original="#000000" class="active-path" data-old_color="#000000" fill="#287391"/><path d="m317.085938 239.121094c-57.441407 0-104 46.5625-104 104s46.558593 104 104 104c57.4375 0 104-46.5625 104-104-.066407-57.410156-46.589844-103.933594-104-104zm8 112v64h-16v-64h-72v-16h72v-72h16v72h72v16zm0 0" data-original="#000000" class="active-path" data-old_color="#000000" fill="#287391"/><path d="m117.085938 151.121094h72v64h-72zm0 0" data-original="#000000" class="active-path" data-old_color="#000000" fill="#287391"/></g> </svg>
